# xmcd
#
# Track frame offsets:
#	150
#	14136
#	38213
#	52171
#	64861
#	85537
#	101303
#	118033
#	133327
#	153257
#	171255
#	188975
#	208343
#	225127
#	241530
#	260628
#
# Disc length: 3630 seconds
#
# Revision: 1
# Processed by: cddbd v1.5.2PL0 Copyright (c) Steve Scherf et al.
# Submitted via: audiograbber 1.83.01
#
DISCID=da0e2c10
DTITLE=Sunfly - SFG-28
DYEAR=1900
DGENRE=
TTITLE0=Dr Hook - Sexy Eyes
TTITLE1=Dr Hook - When You're In Love With A Beautiful Woman
TTITLE2=Dr Hook - Only Sixteen
TTITLE3=Dr Hook - Sweetest Of All
TTITLE4=Dr Hook - Sharing The Night Together
TTITLE5=Dr Hook - If I Said You Had A Beautiful Body
TTITLE6=Dr Hook - A Little Bit More
TTITLE7=Dr Hook - Better Love Next Time
TTITLE8=Smokie - Lay Back In The Arms Of Someone
TTITLE9=Smokie - Oh Carol
TTITLE10=Smokie - Living Next Door To Alice
TTITLE11=Smokie - Mexican Girl
TTITLE12=Smokie - Only You
TTITLE13=Smokie - I'll Meet You At Midnight
TTITLE14=Smokie - Be My Baby
TTITLE15=Smokie - Day Dreamin'
EXTD=
EXTT0=
EXTT1=
EXTT2=
EXTT3=
EXTT4=
EXTT5=
EXTT6=
EXTT7=
EXTT8=
EXTT9=
EXTT10=
EXTT11=
EXTT12=
EXTT13=
EXTT14=
EXTT15=
PLAYORDER=
